<?xml version="1.0" standalone="no"?><!DOCTYPE svg PUBLIC "-//W3C//DTD SVG 1.1//EN" "http://www.w3.org/Graphics/SVG/1.1/DTD/svg11.dtd"><svg t="1667554489279" class="icon" viewBox="0 0 1024 1024" version="1.1" xmlns="http://www.w3.org/2000/svg" p-id="8118" xmlns:xlink="http://www.w3.org/1999/xlink" width="200" height="200"><path d="M512 0C229.691077 0 0 229.671385 0 512s229.691077 512 512 512 512-229.671385 512-512S794.308923 0 512 0z m0 984.615385C251.411692 984.615385 39.384615 772.588308 39.384615 512S251.411692 39.384615 512 39.384615s472.615385 212.027077 472.615385 472.615385-212.027077 472.615385-472.615385 472.615385z" fill="" p-id="8119"></path><path d="M758.153846 492.307692H531.692308V275.692308a19.692308 19.692308 0 1 0-39.384616 0v216.615384H265.846154a19.692308 19.692308 0 1 0 0 39.384616H492.307692v236.307692a19.692308 19.692308 0 1 0 39.384616 0V531.692308h226.461538a19.692308 19.692308 0 1 0 0-39.384616z" fill="" p-id="8120"></path></svg>